<?xml version="1.0" standalone="no"?>
<!DOCTYPE svg PUBLIC "-//W3C//DTD SVG 20010904//EN"
 "http://www.w3.org/TR/2001/REC-SVG-20010904/DTD/svg10.dtd">
<svg version="1.0" xmlns="http://www.w3.org/2000/svg"
 width="1026.000000pt" height="1026.000000pt" viewBox="0 0 1026.000000 1026.000000"
 preserveAspectRatio="xMidYMid meet">
<metadata>
Created by potrace 1.11, written by Peter Selinger 2001-2013
</metadata>
<g transform="translate(0.000000,1026.000000) scale(0.100000,-0.100000)"
fill="#000000" stroke="none">
<path d="M4808 10245 c-2 -2 -55 -6 -118 -9 -158 -9 -386 -34 -470 -51 -26 -5
-52 -10 -107 -20 -18 -3 -63 -12 -100 -21 -38 -9 -75 -17 -83 -19 -8 -2 -60
-15 -115 -30 -55 -14 -107 -28 -115 -30 -94 -23 -412 -136 -555 -197 -201 -86
-545 -258 -613 -307 -17 -11 -33 -21 -36 -21 -18 0 -320 -202 -451 -303 -133
-101 -155 -118 -205 -160 -25 -21 -70 -59 -100 -85 -175 -147 -546 -547 -725
-782 -83 -109 -231 -326 -290 -428 -277 -473 -473 -941 -585 -1402 -23 -96
-20 -82 -55 -250 -14 -68 -27 -141 -30 -162 -3 -21 -9 -68 -15 -105 -14 -94
-18 -145 -27 -318 -9 -187 -9 -738 0 -865 13 -165 15 -194 21 -237 3 -24 9
-62 12 -85 21 -164 81 -455 115 -563 5 -16 22 -75 38 -130 103 -353 286 -783
460 -1077 9 -14 31 -52 50 -85 314 -542 831 -1114 1361 -1503 139 -103 487
-330 504 -330 3 0 29 -14 58 -31 84 -50 447 -229 463 -229 2 0 28 -11 57 -24
56 -26 151 -62 233 -91 28 -9 57 -21 66 -25 41 -21 407 -125 549 -155 72 -16
85 -19 140 -30 55 -11 279 -44 345 -51 39 -3 84 -8 100 -10 202 -23 819 -23
1065 1 19 2 69 6 110 10 62 5 208 26 355 52 17 3 134 32 260 64 127 33 237 61
245 63 51 13 313 106 428 152 133 54 411 187 542 260 106 58 283 165 317 190
17 13 34 24 37 24 14 0 373 262 396 289 3 3 27 24 55 46 27 22 57 47 66 56 8
9 45 40 80 70 106 91 403 398 529 549 30 36 57 67 61 70 30 27 314 424 353
495 9 17 25 44 36 60 31 50 166 295 208 380 143 287 278 649 362 969 18 65 34
128 36 140 2 11 6 30 8 41 11 47 45 222 49 250 3 17 10 59 16 95 24 149 27
180 37 385 12 266 6 895 -10 981 -2 11 -7 44 -11 74 -4 30 -9 64 -11 75 -2 11
-7 40 -10 65 -23 176 -109 542 -175 745 -24 72 -43 132 -44 135 -9 44 -110
300 -160 405 -89 188 -159 331 -175 355 -9 14 -47 79 -84 145 -58 102 -249
400 -266 415 -4 3 -33 41 -65 85 -48 66 -170 217 -210 261 -5 6 -38 42 -72 80
-618 693 -1455 1225 -2348 1494 -144 43 -209 60 -340 90 -142 32 -332 65 -430
74 -33 3 -80 8 -105 11 -130 14 -226 17 -552 20 -196 2 -358 2 -360 0z m-107
-1382 c13 -16 12 -17 -3 -4 -10 7 -18 15 -18 17 0 8 8 3 21 -13z"/>
</g>
</svg>
