<!DOCTYPE svg PUBLIC "-//W3C//DTD SVG 20010904//EN" "http://www.w3.org/TR/2001/REC-SVG-20010904/DTD/svg10.dtd">
<svg version="1.0" xmlns="http://www.w3.org/2000/svg" width="1026px" height="1025px" viewBox="0 0 10260 10250" preserveAspectRatio="xMidYMid meet">
<g id="layer1" fill="#fcdb70" stroke="none">
 <path d="M4942 6185 c-291 -53 -542 -216 -712 -461 -140 -202 -207 -465 -181 -703 14 -130 50 -266 70 -266 8 0 36 41 63 90 70 127 206 329 301 449 45 55 145 164 222 242 210 211 406 360 670 511 66 38 119 73 119 78 -1 6 -28 18 -60 28 -152 46 -345 59 -492 32z"/>
 </g>
<g id="layer2" fill="#d4bbc5" stroke="none">
 <path d="M6616 10031 c-4 -5 -2 -12 4 -16 5 -3 10 -3 10 1 0 3 6 1 14 -5 10 -8 16 -9 21 -1 3 5 4 11 1 11 -3 1 -9 2 -13 3 -5 1 -13 5 -20 9 -6 4 -14 3 -17 -2z"/>
 <path d="M3516 10003 c-4 -5 -12 -9 -17 -9 -5 -1 -11 -3 -14 -4 -3 -1 -9 -3 -15 -4 -5 0 -10 -4 -10 -8 0 -5 0 -11 0 -14 0 -4 7 -1 15 6 8 7 15 9 15 5 0 -4 6 -3 13 3 6 6 15 11 20 11 8 1 11 11 5 17 -3 2 -8 1 -12 -3z"/>
 <path d="M4845 9130 c-8 -12 20 -24 35 -15 6 3 8 11 5 16 -8 12 -32 12 -40 -1z"/>
 <path d="M5355 9130 c-8 -12 20 -24 35 -15 6 3 8 11 5 16 -8 12 -32 12 -40 -1z"/>
 <path d="M4725 9121 c-7 -12 12 -24 25 -16 11 7 4 25 -10 25 -5 0 -11 -4 -15 -9z"/>
 <path d="M5485 9121 c-7 -12 12 -24 25 -16 11 7 4 25 -10 25 -5 0 -11 -4 -15 -9z"/>
 <path d="M4635 9111 c-7 -12 12 -24 25 -16 11 7 4 25 -10 25 -5 0 -11 -4 -15 -9z"/>
 <path d="M5575 9111 c-7 -12 12 -24 25 -16 11 7 4 25 -10 25 -5 0 -11 -4 -15 -9z"/>
 <path d="M4555 9101 c-7 -12 12 -24 25 -16 11 7 4 25 -10 25 -5 0 -11 -4 -15 -9z"/>
 <path d="M5655 9101 c-7 -12 12 -24 25 -16 11 7 4 25 -10 25 -5 0 -11 -4 -15 -9z"/>
 <path d="M4485 9091 c-7 -12 12 -24 25 -16 11 7 4 25 -10 25 -5 0 -11 -4 -15 -9z"/>
 <path d="M5725 9091 c-7 -12 12 -24 25 -16 11 7 4 25 -10 25 -5 0 -11 -4 -15 -9z"/>
 <path d="M4425 9081 c-7 -12 12 -24 25 -16 11 7 4 25 -10 25 -5 0 -11 -4 -15 -9z"/>
 <path d="M4365 9071 c-7 -12 12 -24 25 -16 11 7 4 25 -10 25 -5 0 -11 -4 -15 -9z"/>
 <path d="M5845 9071 c-7 -12 12 -24 25 -16 11 7 4 25 -10 25 -5 0 -11 -4 -15 -9z"/>
 <path d="M4315 9061 c-7 -12 12 -24 25 -16 11 7 4 25 -10 25 -5 0 -11 -4 -15 -9z"/>
 <path d="M5895 9061 c-7 -12 12 -24 25 -16 11 7 4 25 -10 25 -5 0 -11 -4 -15 -9z"/>
 <path d="M4226 9041 c-4 -6 -13 -8 -20 -5 -17 6 -31 -12 -16 -21 5 -3 16 -3 23 2 6 4 17 8 22 8 14 0 19 19 7 23 -6 2 -13 -1 -16 -7z"/>
 <path d="M5985 9041 c-7 -12 12 -24 25 -16 11 7 4 25 -10 25 -5 0 -11 -4 -15 -9z"/>
 <path d="M6075 9021 c-6 -11 13 -26 22 -17 3 3 12 1 19 -5 7 -6 18 -8 24 -4 14 9 1 28 -16 21 -7 -3 -16 -1 -19 4 -8 13 -22 13 -30 1z"/>
 <path d="M4066 9001 c-4 -6 -13 -8 -20 -5 -17 6 -31 -12 -16 -21 5 -3 16 -3 23 2 6 4 17 8 22 8 14 0 19 19 7 23 -6 2 -13 -1 -16 -7z"/>
 <path d="M6185 8991 c-7 -12 12 -24 25 -16 11 7 4 25 -10 25 -5 0 -11 -4 -15 -9z"/>
 <path d="M6255 8971 c-7 -12 12 -24 25 -16 11 7 4 25 -10 25 -5 0 -11 -4 -15 -9z"/>
 <path d="M3865 8944 c-38 -13 -76 -26 -84 -29 -9 -4 -11 -9 -5 -15 12 -12 180 42 177 56 -3 15 -16 13 -88 -12z"/>
 <path d="M8586 8902 c-3 -5 3 -17 13 -26 11 -10 22 -13 25 -8 3 5 -3 17 -13 26 -11 10 -22 13 -25 8z"/>
 <path d="M6495 8891 c-7 -12 12 -24 25 -16 11 7 4 25 -10 25 -5 0 -11 -4 -15 -9z"/>
 <path d="M3665 8871 c-7 -12 12 -24 25 -16 11 7 4 25 -10 25 -5 0 -11 -4 -15 -9z"/>
 <path d="M1576 8841 c-10 -11 -13 -22 -8 -25 5 -3 17 3 26 13 10 11 13 22 8 25 -5 3 -17 -3 -26 -13z"/>
 <path d="M3615 8851 c-7 -12 12 -24 25 -16 11 7 4 25 -10 25 -5 0 -11 -4 -15 -9z"/>
 <path d="M6645 8831 c-7 -12 12 -24 25 -16 11 7 4 25 -10 25 -5 0 -11 -4 -15 -9z"/>
 <path d="M1521 8786 c-13 -13 -18 -26 -13 -30 5 -3 19 5 31 18 13 13 18 26 13 30 -5 3 -19 -5 -31 -18z"/>
 <path d="M6715 8801 c-7 -12 12 -24 25 -16 11 7 4 25 -10 25 -5 0 -11 -4 -15 -9z"/>
 <path d="M3465 8787 c-10 -8 -14 -16 -9 -19 14 -9 56 11 49 22 -8 13 -18 13 -40 -3z"/>
 <path d="M6805 8760 c-3 -6 6 -15 21 -20 15 -6 30 -13 35 -15 4 -3 10 -1 14 4 3 6 -8 17 -24 26 -35 18 -38 18 -46 5z"/>
 <path d="M6995 8671 c-3 -6 3 -15 14 -21 12 -6 22 -6 26 -1 3 6 -3 15 -14 21 -12 6 -22 6 -26 1z"/>
 <path d="M3165 8636 c-11 -8 -14 -16 -8 -19 6 -4 18 0 28 7 11 8 14 16 8 19 -6 4 -18 0 -28 -7z"/>
 <path d="M7106 8612 c-3 -6 1 -15 8 -21 8 -7 17 -8 20 -3 3 6 -1 15 -8 21 -8 7 -17 8 -20 3z"/>
 <path d="M7156 8582 c-3 -6 1 -15 8 -21 8 -7 17 -8 20 -3 3 6 -1 15 -8 21 -8 7 -17 8 -20 3z"/>
 <path d="M2981 8526 c-7 -8 -8 -17 -3 -20 6 -3 15 1 21 8 7 8 8 17 3 20 -6 3 -15 -1 -21 -8z"/>
 <path d="M7236 8532 c-3 -6 1 -15 8 -21 8 -7 17 -8 20 -3 3 6 -1 15 -8 21 -8 7 -17 8 -20 3z"/>
 <path d="M2845 8436 c-15 -13 -24 -25 -19 -29 6 -3 23 4 39 17 15 13 24 25 19 29 -6 3 -23 -4 -39 -17z"/>
 <path d="M7446 8392 c-3 -6 1 -15 8 -21 8 -7 17 -8 20 -3 3 6 -1 15 -8 21 -8 7 -17 8 -20 3z"/>
 <path d="M2761 8376 c-7 -8 -8 -17 -3 -20 6 -3 15 1 21 8 7 8 8 17 3 20 -6 3 -15 -1 -21 -8z"/>
 <path d="M2721 8346 c-7 -8 -8 -17 -3 -20 6 -3 15 1 21 8 7 8 8 17 3 20 -6 3 -15 -1 -21 -8z"/>
 <path d="M7516 8342 c-3 -6 1 -15 8 -21 8 -7 17 -8 20 -3 3 6 -1 15 -8 21 -8 7 -17 8 -20 3z"/>
 <path d="M2681 8316 c-7 -8 -8 -17 -3 -20 6 -3 15 1 21 8 7 8 8 17 3 20 -6 3 -15 -1 -21 -8z"/>
 <path d="M7556 8312 c-3 -6 1 -15 8 -21 8 -7 17 -8 20 -3 3 6 -1 15 -8 21 -8 7 -17 8 -20 3z"/>
 <path d="M2641 8286 c-7 -8 -8 -17 -3 -20 6 -3 15 1 21 8 7 8 8 17 3 20 -6 3 -15 -1 -21 -8z"/>
 <path d="M7606 8272 c-3 -6 1 -15 8 -21 8 -7 17 -8 20 -3 3 6 -1 15 -8 21 -8 7 -17 8 -20 3z"/>
 <path d="M2591 8246 c-7 -8 -8 -17 -3 -20 6 -3 15 1 21 8 7 8 8 17 3 20 -6 3 -15 -1 -21 -8z"/>
 <path d="M7656 8232 c-3 -6 1 -15 8 -21 8 -7 17 -8 20 -3 3 6 -1 15 -8 21 -8 7 -17 8 -20 3z"/>
 <path d="M2541 8206 c-7 -8 -8 -17 -3 -20 6 -3 15 1 21 8 7 8 8 17 3 20 -6 3 -15 -1 -21 -8z"/>
 <path d="M7726 8172 c-3 -6 1 -15 8 -21 8 -7 17 -8 20 -3 3 6 -1 15 -8 21 -8 7 -17 8 -20 3z"/>
 <path d="M2476 8151 c-10 -11 -13 -22 -8 -25 5 -3 17 3 26 13 10 11 13 22 8 25 -5 3 -17 -3 -26 -13z"/>
 <path d="M7806 8102 c-3 -5 5 -19 18 -31 13 -13 26 -18 30 -13 3 5 -5 19 -18 31 -13 13 -26 18 -30 13z"/>
 <path d="M2381 8066 c-13 -13 -18 -26 -13 -30 5 -3 19 5 31 18 13 13 18 26 13 30 -5 3 -19 -5 -31 -18z"/>
 <path d="M2196 7881 c-15 -16 -23 -31 -18 -35 5 -3 21 8 36 23 15 16 23 31 18 35 -5 3 -21 -8 -36 -23z"/>
 <path d="M8066 7842 c-3 -5 5 -19 18 -31 13 -13 26 -18 30 -13 3 5 -5 19 -18 31 -13 13 -26 18 -30 13z"/>
 <path d="M2096 7771 c-10 -11 -13 -22 -8 -25 5 -3 17 3 26 13 10 11 13 22 8 25 -5 3 -17 -3 -26 -13z"/>
 <path d="M8146 7752 c-3 -5 3 -17 13 -26 11 -10 22 -13 25 -8 3 5 -3 17 -13 26 -11 10 -22 13 -25 8z"/>
 <path d="M2036 7701 c-10 -11 -13 -22 -8 -25 5 -3 17 3 26 13 10 11 13 22 8 25 -5 3 -17 -3 -26 -13z"/>
 <path d="M8196 7692 c-3 -6 1 -15 8 -21 8 -7 17 -8 20 -3 3 6 -1 15 -8 21 -8 7 -17 8 -20 3z"/>
 <path d="M1991 7646 c-7 -8 -8 -17 -3 -20 6 -3 15 1 21 8 7 8 8 17 3 20 -6 3 -15 -1 -21 -8z"/>
 <path d="M8236 7642 c-3 -5 3 -17 13 -26 11 -10 22 -13 25 -8 3 5 -3 17 -13 26 -11 10 -22 13 -25 8z"/>
 <path d="M1951 7596 c-7 -8 -8 -17 -3 -20 6 -3 15 1 21 8 7 8 8 17 3 20 -6 3 -15 -1 -21 -8z"/>
 <path d="M8276 7592 c-3 -6 1 -15 8 -21 8 -7 17 -8 20 -3 3 6 -1 15 -8 21 -8 7 -17 8 -20 3z"/>
 <path d="M1921 7556 c-7 -8 -8 -17 -3 -20 6 -3 15 1 21 8 7 8 8 17 3 20 -6 3 -15 -1 -21 -8z"/>
 <path d="M8306 7552 c-3 -6 1 -15 8 -21 8 -7 17 -8 20 -3 3 6 -1 15 -8 21 -8 7 -17 8 -20 3z"/>
 <path d="M1891 7516 c-7 -8 -8 -17 -3 -20 6 -3 15 1 21 8 7 8 8 17 3 20 -6 3 -15 -1 -21 -8z"/>
 <path d="M8336 7512 c-3 -6 1 -15 8 -21 8 -7 17 -8 20 -3 3 6 -1 15 -8 21 -8 7 -17 8 -20 3z"/>
 <path d="M1861 7476 c-7 -8 -8 -17 -3 -20 6 -3 15 1 21 8 7 8 8 17 3 20 -6 3 -15 -1 -21 -8z"/>
 <path d="M8366 7472 c-3 -6 1 -15 8 -21 8 -7 17 -8 20 -3 3 6 -1 15 -8 21 -8 7 -17 8 -20 3z"/>
 <path d="M1791 7376 c-17 -25 -27 -47 -22 -51 6 -3 24 15 40 39 17 25 27 47 22 51 -6 3 -24 -15 -40 -39z"/>
 <path d="M8417 7404 c-9 -9 73 -125 84 -119 5 4 -9 33 -31 66 -43 62 -43 63 -53 53z"/>
 <path d="M1706 7245 c-16 -24 -6 -45 11 -22 19 24 23 36 14 41 -5 3 -16 -5 -25 -19z"/>
 <path d="M8526 7232 c-3 -6 1 -15 8 -21 8 -7 17 -8 20 -3 3 6 -1 15 -8 21 -8 7 -17 8 -20 3z"/>
 <path d="M1671 7186 c-7 -8 -8 -17 -3 -20 6 -3 15 1 21 8 7 8 8 17 3 20 -6 3 -15 -1 -21 -8z"/>
 <path d="M8556 7182 c-3 -6 1 -15 8 -21 8 -7 17 -8 20 -3 3 6 -1 15 -8 21 -8 7 -17 8 -20 3z"/>
 <path d="M1643 7137 c-19 -24 -23 -36 -14 -41 5 -3 16 5 25 19 16 24 6 45 -11 22z"/>
 <path d="M8597 7114 c-3 -5 3 -20 12 -33 11 -14 21 -19 25 -13 3 5 -2 20 -12 33 -11 12 -21 18 -25 13z"/>
 <path d="M1580 7031 c-6 -12 -6 -22 -1 -26 6 -3 15 3 21 14 6 12 6 22 1 26 -6 3 -15 -3 -21 -14z"/>
 <path d="M8678 6965 c-3 -3 6 -28 20 -56 15 -31 29 -46 34 -41 6 6 2 25 -11 50 -21 41 -34 55 -43 47z"/>
 <path d="M1460 6791 c-6 -12 -6 -22 -1 -26 6 -3 15 3 21 14 6 12 6 22 1 26 -6 3 -15 -3 -21 -14z"/>
 <path d="M8808 6694 c-9 -14 11 -56 22 -49 13 8 13 18 -3 40 -8 10 -16 14 -19 9z"/>
 <path d="M8835 6620 c-4 -6 -3 -16 3 -22 6 -6 12 -6 17 2 4 6 3 16 -3 22 -6 6 -12 6 -17 -2z"/>
 <path d="M8855 6570 c-4 -6 -3 -16 3 -22 6 -6 12 -6 17 2 4 6 3 16 -3 22 -6 6 -12 6 -17 -2z"/>
 <path d="M1365 6560 c-4 -6 -3 -16 3 -22 6 -6 12 -6 17 2 4 6 3 16 -3 22 -6 6 -12 6 -17 -2z"/>
 <path d="M8885 6490 c-4 -6 -3 -16 3 -22 6 -6 12 -6 17 2 4 6 3 16 -3 22 -6 6 -12 6 -17 -2z"/>
 <path d="M1335 6479 c-37 -100 -54 -164 -45 -173 10 -10 9 -14 45 93 16 49 22 78 15 85 -6 6 -11 4 -15 -5z"/>
 <path d="M8956 6281 c-10 -16 13 -66 25 -54 6 6 6 19 0 36 -11 29 -16 32 -25 18z"/>
 <path d="M1255 6230 c-4 -6 -3 -16 3 -22 6 -6 12 -6 17 2 4 6 3 16 -3 22 -6 6 -12 6 -17 -2z"/>
 <path d="M8985 6179 c-4 -6 -3 -15 3 -21 6 -6 8 -16 6 -23 -3 -7 -1 -16 5 -19 6 -4 8 -13 5 -20 -3 -8 -1 -17 5 -20 6 -4 8 -13 5 -20 -3 -8 -1 -17 5 -20 6 -4 8 -13 5 -20 -3 -8 -1 -17 5 -20 14 -9 25 14 13 26 -6 6 -8 16 -6 23 3 7 1 16 -5 19 -6 4 -8 13 -5 20 3 8 1 17 -5 20 -6 4 -8 13 -5 20 3 8 1 17 -5 20 -6 4 -8 13 -5 20 7 17 -12 30 -21 15z"/>
 <path d="M1236 6161 c-4 -6 -5 -15 -1 -20 3 -5 0 -13 -6 -16 -5 -4 -8 -13 -5 -21 3 -7 1 -16 -5 -20 -6 -3 -8 -12 -5 -19 2 -7 0 -17 -6 -23 -12 -12 -1 -35 13 -26 6 3 8 12 5 20 -3 7 -1 16 5 20 6 3 8 12 5 20 -3 7 -1 16 5 20 6 3 8 12 5 19 -2 7 1 18 7 24 8 8 8 14 0 22 -8 8 -13 8 -17 0z"/>
 <path d="M9035 5970 c-4 -6 -3 -16 3 -22 6 -6 12 -6 17 2 4 6 3 16 -3 22 -6 6 -12 6 -17 -2z"/>
 <path d="M1185 5950 c-4 -6 -3 -16 3 -22 6 -6 12 -6 17 2 4 6 3 16 -3 22 -6 6 -12 6 -17 -2z"/>
 <path d="M9045 5920 c-4 -6 -3 -16 3 -22 6 -6 12 -6 17 2 4 6 3 16 -3 22 -6 6 -12 6 -17 -2z"/>
 <path d="M1175 5900 c-4 -6 -3 -16 3 -22 6 -6 12 -6 17 2 4 6 3 16 -3 22 -6 6 -12 6 -17 -2z"/>
 <path d="M9055 5870 c-4 -6 -3 -16 3 -22 6 -6 12 -6 17 2 4 6 3 16 -3 22 -6 6 -12 6 -17 -2z"/>
 <path d="M1165 5850 c-4 -6 -3 -16 3 -22 6 -6 12 -6 17 2 4 6 3 16 -3 22 -6 6 -12 6 -17 -2z"/>
 <path d="M8973 5677 l-100 -102 8 -65 c16 -132 22 -493 10 -650 -52 -683 -267 -1303 -645 -1865 -437 -649 -1098 -1161 -1841 -1427 -529 -190 -1100 -261 -1645 -207 l-94 9 -101 -99 c-55 -54 -105 -97 -112 -94 -15 6 -26 -14 -12 -22 6 -4 15 -3 21 3 7 7 17 7 27 1 65 -36 697 -62 965 -39 1597 136 2964 1208 3474 2725 160 474 233 1004 204 1479 -12 203 -39 436 -51 448 -4 4 -52 -38 -108 -95z"/>
 <path d="M1145 5730 c-4 -6 -3 -16 3 -22 6 -6 12 -6 17 2 4 6 3 16 -3 22 -6 6 -12 6 -17 -2z"/>
 <path d="M1135 5670 c-4 -6 -3 -16 3 -22 6 -6 12 -6 17 2 4 6 3 16 -3 22 -6 6 -12 6 -17 -2z"/>
 <path d="M1125 5590 c-4 -6 -3 -16 3 -22 6 -6 12 -6 17 2 4 6 3 16 -3 22 -6 6 -12 6 -17 -2z"/>
 <path d="M1115 5490 c-4 -6 -3 -16 3 -22 6 -6 12 -6 17 2 4 6 3 16 -3 22 -6 6 -12 6 -17 -2z"/>
 <path d="M1104 5356 c-8 -21 3 -49 16 -41 5 3 10 15 10 25 0 25 -18 36 -26 16z"/>
 <path d="M1104 4926 c-8 -21 3 -49 16 -41 5 3 10 15 10 25 0 25 -18 36 -26 16z"/>
 <path d="M1115 4780 c-4 -6 -3 -16 3 -22 6 -6 12 -6 17 2 4 6 3 16 -3 22 -6 6 -12 6 -17 -2z"/>
 <path d="M1125 4680 c-4 -6 -3 -16 3 -22 6 -6 12 -6 17 2 4 6 3 16 -3 22 -6 6 -12 6 -17 -2z"/>
 <path d="M1135 4600 c-4 -6 -3 -16 3 -22 6 -6 12 -6 17 2 4 6 3 16 -3 22 -6 6 -12 6 -17 -2z"/>
 <path d="M1145 4530 c-4 -6 -3 -16 3 -22 6 -6 12 -6 17 2 4 6 3 16 -3 22 -6 6 -12 6 -17 -2z"/>
 <path d="M1155 4470 c-4 -6 -3 -16 3 -22 6 -6 12 -6 17 2 4 6 3 16 -3 22 -6 6 -12 6 -17 -2z"/>
 <path d="M1175 4360 c-4 -6 -3 -16 3 -22 6 -6 12 -6 17 2 4 6 3 16 -3 22 -6 6 -12 6 -17 -2z"/>
 <path d="M1195 4270 c-4 -6 -3 -16 3 -22 6 -6 12 -6 17 2 4 6 3 16 -3 22 -6 6 -12 6 -17 -2z"/>
 <path d="M1215 4180 c-4 -6 -3 -16 3 -22 6 -6 12 -6 17 2 4 6 3 16 -3 22 -6 6 -12 6 -17 -2z"/>
 <path d="M1245 4070 c-4 -6 -3 -16 3 -22 6 -6 12 -6 17 2 4 6 3 16 -3 22 -6 6 -12 6 -17 -2z"/>
 <path d="M1265 4000 c-4 -6 -3 -16 3 -22 6 -6 12 -6 17 2 4 6 3 16 -3 22 -6 6 -12 6 -17 -2z"/>
 <path d="M1296 3902 c-5 -8 3 -38 29 -111 4 -9 9 -11 15 -5 7 7 4 28 -6 60 -19 55 -29 70 -38 56z"/>
 <path d="M1365 3700 c-4 -6 -3 -16 3 -22 6 -6 12 -6 17 2 4 6 3 16 -3 22 -6 6 -12 6 -17 -2z"/>
 <path d="M237 3544 c-4 -4 -3 -12 1 -18 4 -6 7 -14 8 -18 1 -5 3 -10 4 -13 1 -3 3 -9 4 -15 0 -5 4 -10 9 -10 4 0 10 0 13 0 4 0 1 7 -6 15 -7 8 -9 15 -5 15 4 0 1 7 -6 17 -8 9 -12 18 -11 20 6 8 -4 13 -11 7z"/>
 <path d="M1476 3441 c-4 -6 14 -52 40 -103 50 -101 63 -120 73 -113 6 3 -90 210 -104 223 -2 2 -6 -1 -9 -7z"/>
 <path d="M1656 3092 c-3 -6 1 -15 8 -21 8 -7 17 -8 20 -3 3 6 -1 15 -8 21 -8 7 -17 8 -20 3z"/>
 <path d="M1686 3042 c-3 -6 1 -15 8 -21 8 -7 17 -8 20 -3 3 6 -1 15 -8 21 -8 7 -17 8 -20 3z"/>
 <path d="M1717 2994 c-9 -9 112 -186 123 -179 6 3 -17 46 -50 96 -63 93 -63 93 -73 83z"/>
 <path d="M1866 2772 c-3 -6 1 -15 8 -21 8 -7 17 -8 20 -3 3 6 -1 15 -8 21 -8 7 -17 8 -20 3z"/>
 <path d="M1896 2732 c-3 -6 1 -15 8 -21 8 -7 17 -8 20 -3 3 6 -1 15 -8 21 -8 7 -17 8 -20 3z"/>
 <path d="M9640 2721 c-6 -12 -6 -22 -1 -26 6 -3 15 3 21 14 6 12 6 22 1 26 -6 3 -15 -3 -21 -14z"/>
 <path d="M1926 2692 c-3 -6 1 -15 8 -21 8 -7 17 -8 20 -3 3 6 -1 15 -8 21 -8 7 -17 8 -20 3z"/>
 <path d="M1966 2642 c-3 -6 1 -15 8 -21 8 -7 17 -8 20 -3 3 6 -1 15 -8 21 -8 7 -17 8 -20 3z"/>
 <path d="M2006 2592 c-3 -6 1 -15 8 -21 8 -7 17 -8 20 -3 3 6 -1 15 -8 21 -8 7 -17 8 -20 3z"/>
 <path d="M2046 2542 c-3 -5 3 -17 13 -26 11 -10 22 -13 25 -8 3 5 -3 17 -13 26 -11 10 -22 13 -25 8z"/>
 <path d="M2106 2472 c-3 -5 3 -17 13 -26 11 -10 22 -13 25 -8 3 5 -3 17 -13 26 -11 10 -22 13 -25 8z"/>
 <path d="M2227 2343 c-4 -5 16 -31 42 -57 27 -26 51 -44 54 -39 4 5 -16 31 -42 57 -27 26 -51 44 -54 39z"/>
 <path d="M2426 2152 c-3 -5 3 -17 13 -26 11 -10 22 -13 25 -8 3 5 -3 17 -13 26 -11 10 -22 13 -25 8z"/>
 <path d="M2506 2082 c-3 -5 3 -17 13 -26 11 -10 22 -13 25 -8 3 5 -3 17 -13 26 -11 10 -22 13 -25 8z"/>
 <path d="M2566 2032 c-3 -5 3 -17 13 -26 11 -10 22 -13 25 -8 3 5 -3 17 -13 26 -11 10 -22 13 -25 8z"/>
 <path d="M2626 1982 c-3 -6 1 -15 8 -21 8 -7 17 -8 20 -3 3 6 -1 15 -8 21 -8 7 -17 8 -20 3z"/>
 <path d="M2666 1952 c-3 -6 1 -15 8 -21 8 -7 17 -8 20 -3 3 6 -1 15 -8 21 -8 7 -17 8 -20 3z"/>
 <path d="M2706 1922 c-3 -6 1 -15 8 -21 8 -7 17 -8 20 -3 3 6 -1 15 -8 21 -8 7 -17 8 -20 3z"/>
 <path d="M2746 1892 c-3 -6 1 -15 8 -21 8 -7 17 -8 20 -3 3 6 -1 15 -8 21 -8 7 -17 8 -20 3z"/>
 <path d="M2815 1841 c-3 -6 21 -28 54 -50 33 -23 62 -37 66 -32 3 6 -21 28 -54 50 -33 23 -62 37 -66 32z"/>
 <path d="M2986 1732 c-3 -6 1 -15 8 -21 8 -7 17 -8 20 -3 3 6 -1 15 -8 21 -8 7 -17 8 -20 3z"/>
 <path d="M3066 1682 c-3 -6 1 -15 8 -21 8 -7 17 -8 20 -3 3 6 -1 15 -8 21 -8 7 -17 8 -20 3z"/>
 <path d="M3215 1591 c-3 -6 3 -15 14 -21 12 -6 22 -6 26 -1 3 6 -3 15 -14 21 -12 6 -22 6 -26 1z"/>
 <path d="M3375 1511 c-3 -6 3 -15 14 -21 12 -6 22 -6 26 -1 3 6 -3 15 -14 21 -12 6 -22 6 -26 1z"/>
 <path d="M8706 1471 c-10 -11 -13 -22 -8 -25 5 -3 17 3 26 13 10 11 13 22 8 25 -5 3 -17 -3 -26 -13z"/>
 <path d="M3705 1371 c-7 -12 12 -24 25 -16 11 7 4 25 -10 25 -5 0 -11 -4 -15 -9z"/>
 <path d="M1666 1332 c-3 -6 1 -15 8 -21 8 -7 17 -8 20 -3 3 6 -1 15 -8 21 -8 7 -17 8 -20 3z"/>
 <path d="M3896 1302 c-3 -6 -2 -13 4 -17 5 -3 10 -3 10 1 0 3 7 1 15 -6 8 -6 19 -9 25 -5 14 9 1 28 -15 21 -7 -2 -17 0 -23 6 -6 6 -12 6 -16 0z"/>
 <path d="M3995 1271 c-7 -12 12 -24 25 -16 11 7 4 25 -10 25 -5 0 -11 -4 -15 -9z"/>
 <path d="M1746 1262 c-3 -6 1 -15 8 -21 8 -7 17 -8 20 -3 3 6 -1 15 -8 21 -8 7 -17 8 -20 3z"/>
 <path d="M4065 1251 c-7 -12 12 -24 24 -16 5 3 13 0 16 -6 4 -5 13 -8 21 -5 7 3 16 1 20 -5 3 -6 12 -8 19 -5 7 2 17 0 23 -6 12 -12 35 -1 26 13 -3 6 -12 8 -20 5 -7 -3 -16 -1 -20 5 -3 6 -12 8 -20 5 -7 -3 -16 -1 -20 5 -3 6 -12 8 -20 5 -7 -3 -16 -1 -19 4 -8 13 -22 13 -30 1z"/>
 <path d="M4275 1201 c-7 -12 12 -24 25 -16 11 7 4 25 -10 25 -5 0 -11 -4 -15 -9z"/>
 <path d="M4325 1191 c-7 -12 12 -24 25 -16 11 7 4 25 -10 25 -5 0 -11 -4 -15 -9z"/>
 <path d="M2575 671 c-3 -6 3 -15 14 -21 12 -6 22 -6 26 -1 3 6 -3 15 -14 21 -12 6 -22 6 -26 1z"/>
 </g>
<g id="layer3" fill="#f2b92c" stroke="none">
 <path d="M5375 6067 c-269 -154 -460 -300 -680 -521 -83 -83 -187 -197 -232 -252 -96 -121 -231 -322 -303 -453 l-52 -94 27 -63 c61 -143 212 -328 356 -435 38 -28 107 -70 153 -93 l86 -44 65 125 c266 511 706 953 1196 1203 66 34 123 68 125 75 14 36 -104 229 -208 340 -104 112 -207 186 -348 251 l-65 30 -120 -69z"/>
 </g>
<g id="layer4" fill="#e26713" stroke="none">
 <path d="M6890 6468 c-406 -13 -678 -59 -1007 -172 -142 -49 -349 -138 -372 -161 -12 -11 -1 -20 70 -55 121 -61 183 -105 276 -193 89 -85 161 -183 216 -294 20 -39 41 -74 46 -77 5 -3 40 8 77 24 306 138 684 222 1059 238 l170 7 0 30 c0 17 -4 36 -9 43 -5 6 -5 12 -1 12 4 0 2 7 -5 15 -7 8 -9 15 -5 15 4 0 2 7 -5 15 -7 8 -9 15 -5 15 4 0 2 7 -5 15 -7 8 -9 15 -6 15 4 0 1 10 -6 23 -6 12 -13 28 -14 35 -1 8 -10 22 -19 32 -9 10 -14 23 -11 28 3 5 -6 26 -19 47 -31 45 -77 135 -70 135 3 0 -4 18 -15 40 -11 22 -25 40 -31 40 -6 0 -8 4 -4 10 3 5 -3 18 -14 29 -11 11 -17 22 -14 25 3 3 -2 8 -11 12 -9 3 -13 10 -10 15 3 5 -2 12 -10 15 -9 3 -14 10 -11 14 3 5 2 10 -2 12 -5 2 -109 0 -233 -4z"/>
 <path d="M4074 4674 c-150 -327 -248 -677 -283 -1014 -6 -52 -11 -196 -11 -319 -1 -204 0 -226 17 -241 26 -25 203 -125 303 -172 112 -52 330 -130 345 -124 8 3 14 54 19 168 17 376 80 680 212 1009 30 74 54 138 54 142 0 3 -44 29 -97 56 -196 101 -352 258 -454 456 -28 55 -55 104 -60 109 -5 6 -23 -22 -45 -70z"/>
 </g>
<g id="layer5" fill="#93063d" stroke="none">
 <path d="M7125 6460 c-3 -6 14 -43 39 -83 68 -110 174 -334 221 -470 l43 -122 818 0 819 0 -3 45 c-6 92 -116 517 -155 600 -11 22 -20 26 -82 31 -123 11 -1693 10 -1700 -1z"/>
 <path d="M3786 3112 c-3 -3 -6 -403 -6 -888 l0 -884 23 -14 c49 -33 523 -156 612 -159 l40 -2 3 823 c2 653 0 823 -10 827 -246 84 -406 154 -565 248 -50 30 -94 52 -97 49z"/>
 </g>
<g id="layer6" fill="#f49638" stroke="none">
 <path d="M4950 7529 c-356 -23 -748 -145 -1056 -329 -140 -83 -344 -241 -457 -353 -370 -367 -595 -790 -694 -1307 -20 -109 -26 -176 -30 -351 -8 -324 23 -535 121 -834 118 -358 303 -652 585 -936 141 -141 341 -304 365 -296 8 2 13 87 17 273 6 262 17 376 55 559 44 211 130 479 219 675 l53 118 -24 81 c-104 358 -5 758 253 1027 129 134 315 242 498 291 87 23 120 26 260 27 145 1 170 -2 270 -28 61 -15 131 -39 157 -52 27 -14 49 -20 53 -14 3 5 -11 18 -32 29 l-38 19 80 37 c218 100 467 179 720 229 150 29 330 46 555 53 l225 6 63 -106 c83 -139 151 -286 202 -432 42 -124 53 -144 64 -126 8 13 -49 177 -110 314 -333 752 -1044 1291 -1854 1406 -166 24 -354 31 -520 20z"/>
 <path d="M5635 6061 c-3 -6 3 -15 14 -21 12 -6 22 -6 26 -1 3 6 -3 15 -14 21 -12 6 -22 6 -26 1z"/>
 <path d="M5786 5962 c-3 -6 1 -15 8 -21 8 -7 17 -8 20 -3 3 6 -1 15 -8 21 -8 7 -17 8 -20 3z"/>
 <path d="M5936 5812 c-3 -6 1 -15 8 -21 8 -7 17 -8 20 -3 3 6 -1 15 -8 21 -8 7 -17 8 -20 3z"/>
 <path d="M6098 5554 c-9 -14 11 -56 22 -49 13 8 13 18 -3 40 -8 10 -16 14 -19 9z"/>
 <path d="M4317 4413 c-4 -5 16 -31 42 -57 27 -26 51 -44 54 -39 4 5 -16 31 -42 57 -27 26 -51 44 -54 39z"/>
 <path d="M4446 4292 c-3 -6 1 -15 8 -21 8 -7 17 -8 20 -3 3 6 -1 15 -8 21 -8 7 -17 8 -20 3z"/>
 <path d="M4486 4262 c-3 -6 1 -15 8 -21 8 -7 17 -8 20 -3 3 6 -1 15 -8 21 -8 7 -17 8 -20 3z"/>
 <path d="M4555 4211 c-3 -6 3 -15 14 -21 12 -6 22 -6 26 -1 3 6 -3 15 -14 21 -12 6 -22 6 -26 1z"/>
 <path d="M4655 4160 c-3 -5 8 -16 24 -25 18 -9 32 -11 36 -5 3 5 -8 16 -24 25 -18 9 -32 11 -36 5z"/>
 </g>
<g id="layer7" fill="#aaafad" stroke="none">
 <path d="M8075 5799 c-971 -5 -1004 -6 -1140 -27 -187 -30 -402 -84 -555 -139 -129 -46 -406 -175 -513 -239 -185 -110 -406 -284 -565 -443 -467 -469 -743 -1030 -839 -1702 -14 -97 -17 -259 -20 -1092 -3 -771 -2 -982 8 -993 11 -13 364 336 2326 2298 1272 1272 2313 2318 2313 2325 0 6 -3 13 -7 15 -5 2 -458 0 -1008 -3z"/>
 </g>
<g id="layer8" fill="#ad1251" stroke="none">
 <path d="M4810 9129 c-411 -35 -769 -119 -1175 -274 -116 -44 -462 -216 -588 -293 -490 -297 -949 -736 -1264 -1207 -317 -475 -534 -1025 -627 -1588 -154 -930 34 -1906 522 -2712 460 -759 1162 -1355 1967 -1668 77 -30 143 -53 148 -50 4 2 7 404 7 893 l0 889 -117 87 c-220 163 -440 404 -599 657 -180 286 -304 648 -345 1006 -19 171 -7 506 24 671 98 512 325 942 686 1298 105 104 310 262 445 342 232 139 544 254 816 301 239 41 563 43 800 4 629 -103 1200 -459 1567 -978 l41 -57 792 0 c436 0 834 -3 885 -6 l93 -7 36 -116 c45 -143 90 -320 111 -438 9 -48 21 -92 26 -97 19 -20 21 29 5 112 -118 600 -394 1201 -780 1696 -233 299 -551 602 -850 811 -567 395 -1181 629 -1866 710 -160 19 -608 28 -760 14z"/>
 </g>
<g id="layer9" fill="#e1e3e2" stroke="none">
 <path d="M4745 10238 c-1027 -52 -2080 -478 -2930 -1186 -265 -221 -590 -564 -801 -847 -403 -538 -699 -1150 -863 -1785 -120 -468 -158 -827 -148 -1410 8 -475 27 -657 108 -1020 133 -601 388 -1193 742 -1725 279 -418 672 -844 1075 -1164 301 -239 551 -398 912 -579 460 -230 936 -385 1435 -467 402 -66 1158 -73 1600 -14 872 117 1767 511 2484 1096 490 399 889 864 1203 1403 78 135 222 414 260 505 9 22 31 74 49 115 35 82 85 219 129 350 110 332 172 612 226 1025 24 188 25 967 0 1170 -56 467 -157 870 -321 1288 -57 147 -176 417 -195 442 -4 6 -32 58 -64 118 -224 426 -521 822 -901 1202 -392 393 -794 686 -1290 941 -414 213 -761 336 -1290 457 -337 78 -901 111 -1420 85z m755 -1132 c58 -8 114 -14 170 -21 85 -9 174 -26 365 -67 51 -11 141 -34 185 -48 87 -27 288 -93 305 -100 37 -14 70 -27 100 -40 17 -7 44 -19 60 -26 108 -45 324 -151 400 -195 28 -16 57 -32 65 -36 8 -3 29 -17 46 -30 17 -13 33 -23 36 -23 2 0 58 -36 124 -81 65 -44 130 -87 144 -96 29 -20 157 -121 180 -143 9 -8 40 -35 70 -60 58 -49 337 -325 384 -381 87 -101 128 -152 187 -231 96 -130 142 -195 160 -227 8 -16 24 -42 35 -58 24 -36 39 -61 59 -98 8 -16 36 -66 60 -110 25 -44 56 -105 70 -135 14 -30 36 -77 49 -105 32 -66 66 -144 79 -175 5 -14 13 -33 18 -42 5 -10 9 -23 9 -29 0 -6 6 -25 14 -42 15 -35 84 -240 110 -327 63 -213 106 -504 128 -856 18 -293 -9 -672 -68 -969 -267 -1346 -1185 -2449 -2454 -2950 -360 -142 -747 -232 -1136 -265 -187 -16 -647 -8 -814 14 -69 9 -145 19 -170 21 -107 9 -393 72 -478 106 -13 5 -29 9 -37 9 -13 0 -185 63 -260 95 -16 8 -50 21 -75 30 -118 45 -345 152 -445 211 -22 13 -51 29 -65 36 -14 7 -39 23 -56 35 -17 13 -35 23 -39 23 -5 0 -16 6 -24 14 -9 8 -35 25 -58 37 -75 42 -324 226 -400 296 -23 21 -79 72 -125 113 -103 93 -151 141 -255 255 -80 88 -235 279 -277 341 -12 17 -48 71 -82 120 -33 49 -64 96 -67 104 -4 8 -16 29 -27 45 -11 17 -26 44 -35 60 -8 17 -28 53 -44 80 -32 55 -122 234 -153 305 -24 55 -42 97 -55 130 -6 14 -15 36 -21 50 -6 14 -14 36 -18 50 -3 14 -15 44 -25 67 -10 23 -26 68 -34 100 -8 32 -19 69 -24 83 -5 14 -13 43 -19 65 -6 22 -18 65 -26 95 -17 64 -31 123 -46 198 -5 28 -14 73 -20 100 -5 26 -12 65 -15 87 -3 22 -7 56 -9 75 -25 181 -31 281 -31 535 0 216 6 343 21 460 3 22 7 56 9 75 14 112 76 421 101 500 8 25 21 68 29 95 32 111 68 219 81 244 8 14 14 33 14 42 0 8 4 19 8 25 5 5 19 36 31 69 34 90 156 344 223 462 15 26 32 57 37 68 15 27 32 54 58 91 12 17 31 48 43 70 12 21 35 57 51 79 92 125 192 255 221 287 18 20 56 62 83 93 64 73 268 277 335 335 29 25 64 56 78 69 37 32 177 141 232 180 96 68 238 161 275 181 11 6 38 21 60 34 37 21 349 178 420 211 27 12 66 29 130 55 11 5 38 14 60 21 22 6 45 15 50 19 11 8 113 42 195 65 113 32 246 66 290 75 25 5 77 16 115 24 39 8 90 17 115 20 25 3 61 8 80 10 86 12 120 16 195 22 44 3 82 8 84 10 6 6 597 -3 651 -10z"/>
 <path d="M6766 3471 c-1262 -1263 -2104 -2111 -2097 -2115 39 -25 445 -41 661 -27 645 43 1196 212 1735 532 286 170 528 362 773 613 304 312 517 615 707 1010 248 512 375 1069 375 1640 0 187 -18 427 -34 443 -9 10 -483 -459 -2120 -2096z"/>
 </g>

</svg>